<svg xmlns="http://www.w3.org/2000/svg" width="141" height="47" viewBox="0 0 141 47" fill="none"><path d="M2.14666 38V9.63636H21.9237V15.2038H9.00213V21.0206H20.9126V26.6019H9.00213V32.4325H21.9237V38H2.14666ZM33.2065 38.3047C31.6369 38.3047 30.2104 37.8984 28.927 37.0859C27.6437 36.2734 26.6188 35.0547 25.8525 33.4297C25.0861 31.8047 24.703 29.7873 24.703 27.3775C24.703 24.8754 25.1 22.8164 25.894 21.2006C26.688 19.5849 27.7267 18.3892 29.0101 17.6136C30.3027 16.8381 31.6923 16.4503 33.1788 16.4503C34.296 16.4503 35.2516 16.6442 36.0456 17.032C36.8397 17.4105 37.4952 17.8999 38.0123 18.5C38.5293 19.1001 38.9217 19.7234 39.1895 20.3697H39.328V9.63636H46.1003V38H39.3972V34.5515H39.1895C38.9032 35.207 38.497 35.821 37.9707 36.3935C37.4444 36.9659 36.7843 37.4276 35.9902 37.7784C35.2054 38.1293 34.2775 38.3047 33.2065 38.3047ZM35.5609 33.0281C36.3826 33.0281 37.0843 32.7972 37.666 32.3356C38.2477 31.8647 38.6955 31.2045 39.0094 30.3551C39.3233 29.5057 39.4803 28.5085 39.4803 27.3636C39.4803 26.2003 39.3233 25.1985 39.0094 24.3583C38.7047 23.5181 38.2569 22.8718 37.666 22.4194C37.0843 21.967 36.3826 21.7408 35.5609 21.7408C34.7207 21.7408 34.0098 21.9716 33.4281 22.4332C32.8464 22.8949 32.4032 23.5458 32.0986 24.386C31.8031 25.2262 31.6554 26.2187 31.6554 27.3636C31.6554 28.5085 31.8077 29.5057 32.1124 30.3551C32.4171 31.2045 32.8557 31.8647 33.4281 32.3356C34.0098 32.7972 34.7207 33.0281 35.5609 33.0281ZM63.328 28.8178V16.7273H70.0866V38H63.6327V34.0391H63.4111C62.9403 35.3409 62.137 36.375 61.0013 37.1413C59.8749 37.8984 58.5131 38.277 56.9158 38.277C55.4662 38.277 54.192 37.9446 53.0933 37.2798C51.9946 36.6151 51.1405 35.6871 50.5312 34.4961C49.9218 33.2958 49.6125 31.8924 49.6033 30.2859V16.7273H56.3756V28.9563C56.3849 30.1104 56.6896 31.0199 57.2897 31.6847C57.8898 32.3494 58.707 32.6818 59.741 32.6818C60.4151 32.6818 61.0198 32.5341 61.5553 32.2386C62.1001 31.9339 62.5294 31.4954 62.8433 30.9229C63.1665 30.3413 63.328 29.6396 63.328 28.8178ZM74.9052 38V9.63636H84.8214C86.7973 9.63636 88.4269 9.97798 89.7103 10.6612C90.9936 11.3352 91.9492 12.2447 92.5771 13.3896C93.2049 14.5252 93.5188 15.7855 93.5188 17.1705C93.5188 18.3892 93.3019 19.3956 92.8679 20.1896C92.4432 20.9837 91.88 21.6115 91.1783 22.0732C90.4858 22.5348 89.7333 22.8764 88.9208 23.098V23.375C89.7887 23.4304 90.6612 23.7351 91.5384 24.2891C92.4155 24.843 93.1495 25.6371 93.7404 26.6712C94.3313 27.7053 94.6268 28.9702 94.6268 30.4659C94.6268 31.8878 94.3036 33.1665 93.6573 34.3022C93.011 35.4379 91.9908 36.3381 90.5966 37.0028C89.2024 37.6676 87.3882 38 85.1538 38H74.9052ZM78.3399 34.9531H85.1538C87.3974 34.9531 88.9901 34.5192 89.9318 33.6513C90.8828 32.7741 91.3583 31.7124 91.3583 30.4659C91.3583 29.5057 91.1137 28.6193 90.6243 27.8068C90.135 26.9851 89.4379 26.3295 88.5331 25.8402C87.6282 25.3416 86.5572 25.0923 85.32 25.0923H78.3399V34.9531ZM78.3399 22.1009H84.7106C85.7447 22.1009 86.6772 21.8977 87.5082 21.4915C88.3484 21.0852 89.0132 20.5128 89.5025 19.7741C90.0011 19.0355 90.2504 18.1676 90.2504 17.1705C90.2504 15.924 89.8164 14.8668 88.9485 13.9989C88.0806 13.1218 86.7049 12.6832 84.8214 12.6832H78.3399V22.1009ZM107.966 38.4432C105.917 38.4432 104.148 37.9908 102.662 37.0859C101.185 36.1719 100.044 34.8977 99.2411 33.2635C98.4471 31.62 98.0501 29.7088 98.0501 27.5298C98.0501 25.3509 98.4471 23.4304 99.2411 21.7685C100.044 20.0973 101.162 18.7955 102.593 17.8629C104.033 16.9212 105.713 16.4503 107.634 16.4503C108.742 16.4503 109.836 16.6349 110.916 17.0043C111.996 17.3736 112.98 17.9737 113.866 18.8047C114.753 19.6264 115.459 20.7159 115.985 22.0732C116.511 23.4304 116.775 25.1016 116.775 27.0866V28.4716H100.377V25.6463H113.451C113.451 24.446 113.211 23.375 112.73 22.4332C112.26 21.4915 111.586 20.7482 110.708 20.2035C109.841 19.6587 108.816 19.3864 107.634 19.3864C106.332 19.3864 105.206 19.7095 104.255 20.3558C103.313 20.9929 102.588 21.8239 102.08 22.8487C101.572 23.8736 101.319 24.9723 101.319 26.1449V28.0284C101.319 29.6349 101.596 30.9968 102.15 32.114C102.713 33.2219 103.493 34.0668 104.49 34.6484C105.487 35.2209 106.646 35.5071 107.966 35.5071C108.825 35.5071 109.601 35.3871 110.293 35.147C110.995 34.8977 111.599 34.5284 112.107 34.0391C112.615 33.5405 113.007 32.9219 113.284 32.1832L116.442 33.0696C116.11 34.1406 115.551 35.0824 114.766 35.8949C113.982 36.6982 113.012 37.326 111.858 37.7784C110.704 38.2216 109.407 38.4432 107.966 38.4432ZM129.886 38.4432C127.836 38.4432 126.068 37.9908 124.581 37.0859C123.104 36.1719 121.964 34.8977 121.16 33.2635C120.366 31.62 119.969 29.7088 119.969 27.5298C119.969 25.3509 120.366 23.4304 121.16 21.7685C121.964 20.0973 123.081 18.7955 124.512 17.8629C125.952 16.9212 127.633 16.4503 129.553 16.4503C130.661 16.4503 131.755 16.6349 132.835 17.0043C133.916 17.3736 134.899 17.9737 135.785 18.8047C136.672 19.6264 137.378 20.7159 137.904 22.0732C138.431 23.4304 138.694 25.1016 138.694 27.0866V28.4716H122.296V25.6463H135.37C135.37 24.446 135.13 23.375 134.65 22.4332C134.179 21.4915 133.505 20.7482 132.628 20.2035C131.76 19.6587 130.735 19.3864 129.553 19.3864C128.251 19.3864 127.125 19.7095 126.174 20.3558C125.232 20.9929 124.507 21.8239 124 22.8487C123.492 23.8736 123.238 24.9723 123.238 26.1449V28.0284C123.238 29.6349 123.515 30.9968 124.069 32.114C124.632 33.2219 125.412 34.0668 126.409 34.6484C127.406 35.2209 128.565 35.5071 129.886 35.5071C130.744 35.5071 131.52 35.3871 132.212 35.147C132.914 34.8977 133.519 34.5284 134.026 34.0391C134.534 33.5405 134.927 32.9219 135.204 32.1832L138.361 33.0696C138.029 34.1406 137.47 35.0824 136.686 35.8949C135.901 36.6982 134.931 37.326 133.777 37.7784C132.623 38.2216 131.326 38.4432 129.886 38.4432Z" fill="#000248"></path><rect x="106" y="9" width="27" height="4" rx="2" fill="#377DFF"></rect></svg>